<svg width="21" height="21" viewBox="0 0 21 21" fill="none" xmlns="http://www.w3.org/2000/svg">
<path d="M2.46169 13.5333L1.35336 18.3167C1.31512 18.4915 1.31644 18.6727 1.35719 18.847C1.39795 19.0213 1.47713 19.1843 1.58895 19.324C1.70076 19.4638 1.84238 19.5768 2.00347 19.6548C2.16456 19.7329 2.34104 19.7739 2.52003 19.775C2.60342 19.7834 2.68746 19.7834 2.77086 19.775L7.58336 18.6667L16.8234 9.46165L11.6667 4.31665L2.46169 13.5333Z" fill="white"/>
<path d="M19.7283 4.85336L16.2866 1.41169C16.0604 1.18656 15.7542 1.06018 15.435 1.06018C15.1158 1.06018 14.8096 1.18656 14.5833 1.41169L12.67 3.32502L17.8208 8.47586L19.7341 6.56252C19.8461 6.44999 19.9348 6.31647 19.9951 6.16963C20.0554 6.02278 20.0862 5.86548 20.0857 5.70673C20.0851 5.54798 20.0533 5.39089 19.992 5.24446C19.9306 5.09803 19.8411 4.96513 19.7283 4.85336Z" fill="white"/>
</svg>
