<svg width="26" height="27" viewBox="0 0 26 27" fill="none" xmlns="http://www.w3.org/2000/svg">
<path d="M3.0478 17.2001L1.67557 23.1223C1.62824 23.3388 1.62986 23.5631 1.68032 23.7789C1.73079 23.9947 1.82882 24.1964 1.96725 24.3695C2.10569 24.5425 2.28103 24.6825 2.48047 24.7791C2.67992 24.8757 2.89842 24.9265 3.12002 24.9278C3.22328 24.9383 3.32732 24.9383 3.43057 24.9278L9.38891 23.5556L20.8289 12.1589L14.4445 5.78894L3.0478 17.2001Z" fill="#8C8C8C"/>
<path d="M24.4255 6.45339L20.1644 2.19228C19.8843 1.91355 19.5052 1.75708 19.11 1.75708C18.7148 1.75708 18.3357 1.91355 18.0555 2.19228L15.6866 4.56117L22.0639 10.9384L24.4328 8.5695C24.5714 8.43017 24.6812 8.26487 24.7559 8.08306C24.8305 7.90125 24.8686 7.7065 24.868 7.50995C24.8673 7.3134 24.8279 7.11892 24.7519 6.93762C24.676 6.75632 24.5651 6.59178 24.4255 6.45339Z" fill="#8C8C8C"/>
</svg>
